<svg aria-hidden="true" style="position: absolute; width: 0; height: 0; overflow: hidden;" version="1.1" xmlns="http://www.w3.org/2000/svg" xmlns:xlink="http://www.w3.org/1999/xlink">
<defs>
<symbol id="icon-logoc" viewBox="0 0 150 32">
<path d="M139.219 31.388c-1.441 0-2.737-0.274-3.889-0.821-1.123-0.576-2.016-1.354-2.679-2.333s-0.994-2.074-0.994-3.284c0-1.555 0.389-2.78 1.167-3.673 0.807-0.893 2.117-1.527 3.932-1.901 1.844-0.374 4.35-0.562 7.518-0.562h1.945v2.29h-1.902c-1.757 0-3.225 0.058-4.406 0.173s-2.118 0.317-2.809 0.605-1.181 0.663-1.469 1.123c-0.288 0.461-0.432 1.037-0.432 1.728 0 1.181 0.403 2.146 1.21 2.895 0.835 0.749 1.959 1.123 3.37 1.123 1.153 0 2.161-0.274 3.025-0.821 0.893-0.547 1.585-1.296 2.074-2.247 0.519-0.951 0.778-2.045 0.778-3.284v-4.926c0-1.786-0.36-3.068-1.080-3.846-0.721-0.807-1.902-1.21-3.544-1.21-1.267 0-2.492 0.187-3.673 0.562-1.181 0.346-2.391 0.922-3.63 1.728l-1.21-2.549c0.749-0.518 1.599-0.965 2.549-1.339 0.951-0.403 1.944-0.706 2.981-0.907s2.031-0.302 2.981-0.302c1.814 0 3.313 0.302 4.494 0.907 1.181 0.576 2.059 1.469 2.635 2.679 0.576 1.181 0.865 2.708 0.865 4.58v13.222h-3.285v-4.883h0.39c-0.231 1.095-0.678 2.031-1.34 2.809-0.633 0.778-1.426 1.383-2.376 1.815s-2.016 0.648-3.197 0.648z" fill="currentColor"></path>
<path d="M122.109 31.388c-2.103 0-3.918-0.461-5.444-1.383s-2.708-2.204-3.543-3.846c-0.807-1.671-1.21-3.601-1.21-5.79 0-2.218 0.403-4.134 1.21-5.747 0.835-1.613 2.016-2.852 3.543-3.716s3.341-1.296 5.444-1.296c1.296 0 2.578 0.23 3.846 0.691s2.319 1.109 3.154 1.944l-1.21 2.549c-0.835-0.807-1.757-1.397-2.766-1.772-0.979-0.374-1.916-0.562-2.808-0.562-2.189 0-3.874 0.691-5.055 2.074-1.181 1.354-1.772 3.313-1.772 5.876 0 2.506 0.59 4.494 1.772 5.963 1.181 1.44 2.866 2.161 5.055 2.161 0.893 0 1.829-0.187 2.808-0.562 1.008-0.374 1.93-0.979 2.766-1.815l1.21 2.549c-0.835 0.835-1.901 1.498-3.197 1.988-1.267 0.461-2.535 0.691-3.802 0.691z" fill="currentColor"></path>
<path d="M103.164 4.771v-3.932h4.321v3.932h-4.321zM103.597 30.999v-20.999h3.5v20.999h-3.5z" fill="currentColor"></path>
<path d="M79.471 30.999v-30.462h3.5v14.129h-0.562c0.605-1.671 1.584-2.924 2.938-3.759 1.383-0.864 2.967-1.296 4.753-1.296 1.671 0 3.053 0.302 4.148 0.907 1.123 0.605 1.959 1.527 2.506 2.765 0.547 1.21 0.821 2.751 0.821 4.623v13.092h-3.5v-12.876c0-1.296-0.173-2.362-0.518-3.197-0.317-0.835-0.835-1.455-1.556-1.858-0.691-0.403-1.599-0.605-2.722-0.605-1.267 0-2.376 0.274-3.327 0.821s-1.685 1.311-2.204 2.29c-0.519 0.979-0.778 2.132-0.778 3.457v11.969h-3.5z" fill="currentColor"></path>
<path d="M73.222 31.388c-2.477 0-4.335-0.663-5.574-1.988s-1.858-3.212-1.858-5.66v-11.018h-4.105v-2.722h4.105v-6.438h3.5v6.438h6.654v2.722h-6.654v10.673c0 1.642 0.346 2.895 1.037 3.759 0.691 0.835 1.815 1.253 3.37 1.253 0.461 0 0.922-0.058 1.383-0.173s0.879-0.231 1.253-0.346l0.605 2.679c-0.374 0.202-0.922 0.389-1.642 0.562s-1.411 0.259-2.074 0.259z" fill="currentColor"></path>
<path d="M50.16 31.388c-2.045 0-3.817-0.446-5.315-1.34s-2.664-2.146-3.5-3.759c-0.807-1.642-1.21-3.572-1.21-5.79s0.403-4.134 1.21-5.747c0.835-1.642 2.002-2.909 3.5-3.802s3.269-1.339 5.315-1.339c2.045 0 3.817 0.446 5.315 1.339s2.65 2.16 3.457 3.802c0.835 1.613 1.253 3.529 1.253 5.747s-0.418 4.148-1.253 5.79c-0.807 1.613-1.959 2.866-3.457 3.759s-3.269 1.34-5.315 1.34zM50.16 28.579c1.988 0 3.558-0.691 4.71-2.074 1.181-1.411 1.772-3.428 1.772-6.049 0-2.592-0.591-4.58-1.772-5.963-1.152-1.383-2.722-2.074-4.71-2.074-1.959 0-3.529 0.691-4.71 2.074s-1.772 3.37-1.772 5.963c0 2.621 0.59 4.638 1.772 6.049 1.181 1.383 2.751 2.074 4.71 2.074z" fill="currentColor"></path>
<path d="M35.726 31.388c-2.132 0-3.745-0.634-4.839-1.901-1.066-1.267-1.599-3.082-1.599-5.444v-23.506h3.5v23.246c0 1.008 0.13 1.858 0.389 2.549 0.288 0.691 0.706 1.21 1.253 1.555s1.224 0.519 2.031 0.519c0.346 0 0.677-0.014 0.994-0.043 0.346-0.058 0.663-0.13 0.951-0.216l-0.087 2.938c-0.461 0.086-0.907 0.158-1.339 0.216-0.403 0.058-0.821 0.086-1.253 0.086z" fill="currentColor"></path>
<path d="M14.302 31.24c-2.996 0-5.559-0.634-7.691-1.901s-3.774-3.068-4.926-5.401c-1.123-2.333-1.685-5.113-1.685-8.339s0.562-5.992 1.685-8.296c1.152-2.333 2.794-4.134 4.926-5.401s4.695-1.901 7.691-1.901c2.103 0 4.047 0.331 5.833 0.994s3.284 1.628 4.494 2.895l-1.383 2.895c-1.325-1.239-2.708-2.132-4.148-2.679-1.411-0.576-2.981-0.864-4.71-0.864-3.428 0-6.049 1.080-7.864 3.241s-2.722 5.199-2.722 9.117c0 3.918 0.907 6.971 2.722 9.16 1.815 2.16 4.436 3.241 7.864 3.241 1.728 0 3.298-0.274 4.71-0.821 1.44-0.576 2.823-1.484 4.148-2.722l1.383 2.895c-1.21 1.239-2.708 2.204-4.494 2.895-1.786 0.663-3.73 0.994-5.833 0.994z" fill="currentColor"></path>
</symbol>
<symbol id="icon-cart" viewBox="0 0 30 32">
<path d="M9.083 30.638c-0.757 0-1.402-0.269-1.935-0.808s-0.8-1.186-0.8-1.943c0-0.757 0.269-1.402 0.808-1.935s1.186-0.8 1.943-0.8c0.757 0 1.402 0.269 1.935 0.808s0.8 1.187 0.8 1.943c0 0.757-0.269 1.401-0.808 1.935s-1.186 0.8-1.943 0.8zM24.321 30.638c-0.757 0-1.401-0.269-1.935-0.808s-0.8-1.186-0.8-1.943c0-0.757 0.269-1.402 0.808-1.935s1.186-0.8 1.943-0.8c0.757 0 1.402 0.269 1.935 0.808s0.8 1.187 0.8 1.943c0 0.757-0.269 1.401-0.808 1.935s-1.186 0.8-1.943 0.8zM7.283 5.496l4.036 8.376h10.944l4.58-8.376h-19.56zM6.030 3.010h22.177c0.664 0 1.168 0.3 1.515 0.9s0.349 1.203 0.007 1.81l-4.988 8.993c-0.291 0.494-0.666 0.894-1.124 1.198s-0.965 0.457-1.521 0.457h-11.478l-2.070 3.862h17.38c0.352 0 0.647 0.12 0.886 0.359s0.357 0.535 0.357 0.889c0 0.354-0.119 0.648-0.357 0.884s-0.534 0.354-0.886 0.354h-17.219c-1.115 0-1.917-0.374-2.405-1.121s-0.479-1.581 0.028-2.5l2.411-4.441-5.736-12.166h-1.765c-0.352 0-0.647-0.12-0.886-0.359s-0.357-0.535-0.357-0.889c0-0.354 0.119-0.648 0.357-0.884s0.533-0.354 0.886-0.354h2.554c0.259 0 0.494 0.064 0.705 0.191s0.364 0.307 0.461 0.539l1.068 2.28z" fill="currentColor"></path>
</symbol>
<symbol id="icon-close" viewBox="0 0 32 32">
<path d="M15.029 18.229l-11.2 11.2c-0.419 0.419-0.952 0.629-1.6 0.629s-1.181-0.21-1.6-0.629c-0.419-0.419-0.629-0.952-0.629-1.6s0.21-1.181 0.629-1.6l11.2-11.2-11.2-11.2c-0.419-0.419-0.629-0.952-0.629-1.6s0.21-1.181 0.629-1.6c0.419-0.419 0.952-0.629 1.6-0.629s1.181 0.21 1.6 0.629l11.2 11.2 11.2-11.2c0.419-0.419 0.952-0.629 1.6-0.629s1.181 0.21 1.6 0.629c0.419 0.419 0.629 0.952 0.629 1.6s-0.21 1.181-0.629 1.6l-11.2 11.2 11.2 11.2c0.419 0.419 0.629 0.952 0.629 1.6s-0.21 1.181-0.629 1.6c-0.419 0.419-0.952 0.629-1.6 0.629s-1.181-0.21-1.6-0.629l-11.2-11.2z" fill="currentColor"></path>
</symbol>
<symbol id="icon-burger" viewBox="0 0 47 32">
<path d="M2.097 30.628c-0.592 0-1.089-0.203-1.492-0.608s-0.604-0.91-0.604-1.514c0-0.595 0.201-1.091 0.604-1.489s0.9-0.596 1.492-0.596h40.85c0.592 0 1.092 0.203 1.5 0.608s0.612 0.905 0.612 1.5c0 0.605-0.204 1.106-0.612 1.503s-0.908 0.597-1.5 0.597h-40.85zM2.097 17.41c-0.592 0-1.089-0.203-1.492-0.608s-0.604-0.905-0.604-1.5c0-0.594 0.201-1.091 0.604-1.489s0.9-0.597 1.492-0.597h40.85c0.592 0 1.092 0.203 1.5 0.608s0.612 0.905 0.612 1.5c0 0.594-0.204 1.091-0.612 1.489s-0.908 0.597-1.5 0.597h-40.85zM2.097 4.207c-0.592 0-1.089-0.202-1.492-0.607s-0.604-0.91-0.604-1.514c0-0.595 0.201-1.091 0.604-1.489s0.9-0.597 1.492-0.597h40.85c0.592 0 1.092 0.202 1.5 0.607s0.612 0.905 0.612 1.5c0 0.605-0.204 1.106-0.612 1.504s-0.908 0.596-1.5 0.596h-40.85z" fill="currentColor"></path>
</symbol>
</defs>
</svg>

